<?xml version="1.0" encoding="UTF-8" standalone="no"?>
<!-- Created with Inkscape (http://www.inkscape.org/) -->

<svg
   version="1.1"
   id="svg1"
   width="400"
   height="230"
   viewBox="0 0 400 230"
   sodipodi:docname="logo-homecare.svg"
   inkscape:version="1.3.2 (091e20ef0f, 2023-11-25)"
   inkscape:export-filename="logo-homecare.png"
   inkscape:export-xdpi="96"
   inkscape:export-ydpi="96"
   xml:space="preserve"
   xmlns:inkscape="http://www.inkscape.org/namespaces/inkscape"
   xmlns:sodipodi="http://sodipodi.sourceforge.net/DTD/sodipodi-0.dtd"
   xmlns:xlink="http://www.w3.org/1999/xlink"
   xmlns="http://www.w3.org/2000/svg"
   xmlns:svg="http://www.w3.org/2000/svg"><defs
     id="defs1"><radialGradient
       inkscape:collect="always"
       xlink:href="#linearGradient32"
       id="radialGradient33"
       cx="129.13066"
       cy="72.874298"
       fx="129.13066"
       fy="72.874298"
       r="72.287643"
       gradientTransform="matrix(3.0892465,9.92345e-5,0,1.7485209,-622.90318,13.250532)"
       gradientUnits="userSpaceOnUse" /><linearGradient
       id="linearGradient32"
       inkscape:collect="always"><stop
         style="stop-color:#ffffff;stop-opacity:1;"
         offset="0"
         id="stop32" /><stop
         style="stop-color:#ffffff;stop-opacity:0;"
         offset="1"
         id="stop33" /></linearGradient></defs><sodipodi:namedview
     id="namedview1"
     pagecolor="#505050"
     bordercolor="#eeeeee"
     borderopacity="1"
     inkscape:showpageshadow="0"
     inkscape:pageopacity="0"
     inkscape:pagecheckerboard="0"
     inkscape:deskcolor="#505050"
     inkscape:zoom="1.3852657"
     inkscape:cx="238.58239"
     inkscape:cy="-6.8578902"
     inkscape:window-width="1920"
     inkscape:window-height="1011"
     inkscape:window-x="0"
     inkscape:window-y="32"
     inkscape:window-maximized="1"
     inkscape:current-layer="g33" /><g
     inkscape:groupmode="layer"
     inkscape:label="Image"
     id="g1"><g
       id="g33"
       inkscape:label="Logo Completo"
       style="display:inline"
       transform="matrix(0.84723926,0,0,0.84723926,389.73509,-3.8892897)"><ellipse
         style="display:inline;opacity:1;fill:url(#radialGradient33);fill-opacity:1;stroke-width:0.863403"
         id="path32"
         cx="-223.94511"
         cy="140.32552"
         rx="236.06082"
         ry="135.73497"
         inkscape:label="Realce" /><g
         id="g4"
         transform="matrix(1.4800018,0,0,1.4800018,359.32894,243.34404)"><g
           id="g2"><path
             style="fill:#c07398;stroke:none"
             d="m -400.13817,-145.67178 c -10.33255,1.6264 -10.84107,17.15768 -0.67844,19.48992 1.31024,0.30069 2.73444,0.41593 4.07066,0.2056 10.03136,-1.57898 11.3256,-16.2954 1.5265,-19.39346 -1.50639,-0.47626 -3.3605,-0.54733 -4.91872,-0.30206 m 16.96108,11.87274 c -10.13719,1.59632 -10.57414,15.90388 -1.35689,19.18671 1.45776,0.51919 3.22497,0.55988 4.74911,0.34104 10.24632,-1.47117 11.01571,-16.20071 1.35688,-19.25814 -1.45501,-0.46058 -3.2411,-0.50707 -4.7491,-0.26961 m -30.69955,5.76442 c -10.82569,1.47369 -15.7738,11.04288 -15.7738,21.12923 0,14.140193 9.02282,26.329273 19.33563,35.155383 3.83315,3.28055 8.07301,6.2174 12.72081,8.21734 1.16501,0.50131 3.63224,1.8716 4.90863,1.43306 1.16242,-0.39939 0.19386,-1.55483 -0.33176,-2.03258 -1.957,-1.77876 -3.94666,-3.38811 -5.62778,-5.45883 -6.17028,-7.60018 -12.06963,-19.73835 -8.29221,-29.68188 2.34975,-6.185413 7.85591,-11.062673 14.77066,-8.759563 2.57315,0.85704 4.85398,2.46912 6.78443,4.34968 0.44487,0.43337 1.42618,1.58502 2.05693,0.79152 0.5543,-0.69734 0.0138,-2.06573 -0.15614,-2.82685 -0.61458,-2.75286 -1.86926,-5.41954 -3.35544,-7.8021 -5.40147,-8.65934 -16.43852,-15.95757 -27.03996,-14.51441 m 43.25075,1.45438 c 1.48105,6.01171 -2.73934,12.23642 -8.81976,13.3206 -2.43301,0.43382 -4.28838,-0.42093 -6.61482,-0.7694 1.03073,2.83243 2.65631,5.32767 3.3701,8.31093 0.25018,1.04566 0.49949,2.80719 -0.38817,3.63367 -0.96197,0.89567 -2.1438,-0.4432 -2.81232,-1.09186 -2.36904,-2.29867 -4.98874,-3.89169 -8.31093,-4.20912 -2.83784,-0.27116 -7.02486,0.90589 -8.35019,3.70264 -1.32026,2.78604 -0.96601,7.364173 -0.66784,10.346253 0.20484,2.04864 0.29388,5.91314 1.95209,7.3892 0.65813,0.58583 1.34392,0.24689 1.73734,-0.43843 1.035,-1.80295 1.57513,-3.8056 2.71442,-5.59388 3.2369,-5.0808 11.29447,-11.581383 17.03097,-6.09918 0.79125,0.75617 1.44048,1.57054 1.95497,2.53735 4.49393,8.44491 -1.33773,19.89225 -6.83181,26.45928 -1.35062,1.6144 -2.99201,2.91028 -4.43317,4.42506 -0.59413,0.62448 -0.87229,1.64747 0.32155,1.65516 1.17303,0.008 2.49969,-0.72212 3.56104,-1.16347 3.0582,-1.27169 5.90183,-2.96811 8.65015,-4.80367 11.37484,-7.59713 22.21346,-20.00706 22.21901,-34.374453 0.003,-8.0665 -3.21636,-16.52424 -10.34626,-20.89419 -1.74529,-1.06969 -3.86694,-2.16203 -5.93637,-2.34249 m -21.20135,5.08829 0.33922,0.67844 -0.33922,-0.67844 m -0.84805,31.622723 c -2.51548,0.3662 -4.30787,2.41169 -5.22286,4.67398 -1.7729,4.38345 -0.96499,8.57952 0.53212,12.89042 0.59196,1.70454 1.3146,3.54414 2.2535,5.0882 0.28179,0.4634 0.86507,1.3831 1.53526,1.21593 1.19927,-0.29912 -0.46181,-3.34187 -0.67857,-3.92958 -1.35569,-3.67574 -2.73804,-8.74346 -0.64481,-12.38159 1.98231,-3.44532 5.63953,-2.54944 6.76755,1.01767 0.16319,0.51604 0.51365,3.42566 1.61431,2.43855 0.91457,-0.82021 0.55114,-2.75723 0.38398,-3.79544 -0.50604,-3.14307 -2.62367,-7.78833 -6.54048,-7.21814"
             id="path1"
             sodipodi:nodetypes="csssccsssccssssscsssscsccscsssssssssscssccccscccccssscsssssc" /></g><path
           style="display:inline;fill:#9e5477;fill-opacity:1;stroke:none"
           d="m -400.13817,-145.67178 c -10.33255,1.6264 -10.84107,17.15768 -0.67844,19.48992 1.31024,0.30069 2.73444,0.41593 4.07066,0.2056 10.03136,-1.57898 11.3256,-16.2954 1.5265,-19.39346 -1.50639,-0.47626 -3.3605,-0.54733 -4.91872,-0.30206 m -13.73847,17.63716 c -10.82569,1.47369 -15.7738,11.04288 -15.7738,21.12923 0,14.140193 9.02282,26.329273 19.33563,35.155383 3.83315,3.28055 8.07301,6.2174 12.72081,8.21734 1.16501,0.50131 3.63224,1.8716 4.90863,1.43306 1.16242,-0.39939 0.19386,-1.55483 -0.33176,-2.03258 -1.957,-1.77876 -3.94666,-3.38811 -5.62778,-5.45883 -6.17028,-7.60018 -12.06963,-19.73835 -8.29221,-29.68188 2.34975,-6.185413 7.85591,-11.062673 14.77066,-8.759563 2.57315,0.85704 4.85398,2.46912 6.78443,4.34968 0.44487,0.43337 1.42618,1.58502 2.05693,0.79152 0.5543,-0.69734 0.0138,-2.06573 -0.15614,-2.82685 -0.61458,-2.75286 -1.86926,-5.41954 -3.35544,-7.8021 -5.40147,-8.65934 -16.43852,-15.95757 -27.03996,-14.51441 m 22.0494,6.54267 0.33922,0.67844 -0.33922,-0.67844"
           id="path1-9"
           sodipodi:nodetypes="csssccssssscsssscscccc" /></g><g
         id="g3"
         transform="matrix(1.725909,0,0,1.725909,-258.06714,389.68657)"><path
           style="display:inline;fill:#c07398;stroke:none"
           d="m -52.984628,-99.272937 v 20.5229 h 5.76677 v -7.97171 h 7.9717 v 7.97171 h 5.76677 v -20.5229 h -5.76677 v 7.63248 h -7.9717 v -7.63248 h -5.76677 m 29.68189,4.48435 c -6.19293,0.96721 -9.61665,8.29155 -5.37232,13.32413 2.15324,2.55313 5.77324,3.30011 8.93414,2.83325 6.35477,-0.93858 9.4422,-8.54705 5.17915,-13.5114 -2.04307,-2.37916 -5.75884,-3.11174 -8.74097,-2.64598 m 18.6571802,1.79125 c -0.002,-2.09409 -1.31622,-1.69611 -3.05299,-1.69611 -0.56527,0 -1.79521,-0.23155 -2.1026,0.39314 -0.5358202,1.08892 -0.10234,3.31828 -0.10234,4.52557 v 11.0247 h 5.42754 c 0,-2.98846 -0.55066,-6.6133 0.32941,-9.4982 0.4702,-1.54132 2.46479,-2.59024 3.89306998,-1.5727 0.99037,0.70557 1.19105,2.14522 1.20441,3.26881 0.0309,2.59989 6.6e-4,5.202 6.6e-4,7.80209 H 6.3791422 c 0,-2.88694 -0.73063,-6.95622 0.36369,-9.66781 0.64577,-1.60011 2.7884,-2.481 4.1254998,-1.12053 1.68013,1.70949 0.93836,5.72416 0.93836,7.90496 0,0.58823 -0.31561,2.29351 0.14108,2.70906 0.81503,0.74159 4.19047,0.17432 5.28646,0.17432 0,-3.94491 1.14298,-10.09637 -1.0496,-13.56886 -1.96412,-3.11067 -8.7917798,-3.8442 -10.6535398,-0.16961 -0.76115,-0.53609 -1.35751,-1.29886 -2.20494,-1.71037 -2.66714002,-1.29517 -5.81915,-0.76312 -7.97171,1.20154 m 30.1907198,7.63248 h 11.53353 c 0,-3.12446 -0.40038,-5.83794 -3.05299,-7.88193 -4.67513,-3.60244 -12.70468,-1.28016 -13.96423,4.65933 -1.27235,5.99989 3.40084,9.6913 8.8759,10.1472 1.70311,0.14181 3.98432,-0.36828 5.42755,-1.27836 0.45208,-0.28509 1.29297,-0.75983 1.30073,-1.37783 0.01,-0.76623 -1.93124,-2.67339 -2.65762,-2.71417 -0.6707,-0.0377 -1.38711,0.71511 -2.03533,0.89791 -2.08562,0.58819 -4.95695,-0.0201 -5.42754,-2.45215 m 29.68188,2.54416 c -0.86381,-0.56968 -2.9834,-2.14559 -4.05548,-1.89687 -0.61784,0.14335 -1.03773,0.92465 -1.54234,1.27746 -1.4121,0.98727 -3.07941,0.59699 -4.23031,-0.57519 -2.66681,-2.71612 0.38509,-8.15572 4.0607,-6.03637 0.67575,0.38965 1.12152,0.98571 1.52716,1.63382 l 4.24027,-2.03533 c -0.49715,-2.74601 -3.89225,-4.34386 -6.44521,-4.4074 -4.58582,-0.11413 -9.46159,1.95836 -9.97811,7.12117 -0.52103,5.20786 3.24689,8.5751 8.11239,9.20675 3.13041,0.40639 7.33122,-0.95847 8.31093,-4.28804 m 3.90105,-6.61482 c 2.72833,-1.13589 6.47813,-2.46304 7.80209,1.18728 -2.96355,0.70557 -6.47357,-0.60112 -8.98204,1.72751 -2.2733,2.11035 -1.48413,5.91889 1.18007,7.29222 2.8257,1.45658 6.00259,0.83337 8.1412,-1.38725 v 1.86572 h 5.08832 c 0,-4.043 1.40647,-11.18644 -1.87253,-14.21602 -2.50389,-2.31344 -6.71544,-2.26937 -9.83061,-1.49418 -0.79733,0.19841 -2.84688,0.54354 -3.08414,1.49483 -0.23038,0.92367 1.10169,2.74871 1.55764,3.52989 m 22.21901,-3.39221 c -4e-5,-0.45848 0.1304,-1.20911 -0.17431,-1.59377 -0.63793,-0.80529 -4.09273,-0.27195 -5.08362,-0.27195 v 15.94341 h 5.42754 c 0,-3.04432 -1.27131,-9.42712 2.20494,-10.93426 0.89031,-0.386 1.93601,-0.26005 2.88338,-0.26005 v -4.91871 c -2.06036,0.001 -3.75514,0.60137 -5.25793,2.03533 m 12.38159,7.46287 h 11.533528 c 0,-2.72038 -0.17804,-5.44509 -2.38136,-7.38827 -4.374538,-3.85805 -13.160928,-2.42442 -14.530648,3.82644 -1.33724,6.1026 3.13267,10.18203 8.9403,10.48041 1.72013,0.0884 3.788888,-0.35715 5.257938,-1.25677 0.46195,-0.2829 1.40376,-0.77902 1.32703,-1.43672 -0.0903,-0.77391 -1.89798,-2.61867 -2.68392,-2.64677 -0.6737,-0.0241 -1.375598,0.70474 -2.035328,0.87802 -2.13204,0.56002 -4.85724,-0.0294 -5.42754,-2.45634 m -61.73832,-2.88338 h -6.61482 c 0.62316,-3.99314 5.53048,-3.18447 6.61482,0 m 68.183528,0 h -6.614818 c 0.6637,-3.72094 5.78275,-3.4708 6.614818,0 m -121.950148,-2.31029 c 4.59006,-0.28332 4.86148,7.49934 0.33922,7.72003 -4.49876,0.21955 -4.80825,-7.44418 -0.33922,-7.72003 m 88.70643,5.36328 c -4.1e-4,0.62652 0.0484,1.28801 -0.24708,1.86324 -0.68691,1.33734 -3.14743,1.96207 -4.25884,0.78366 -0.82748,-0.87735 -0.31446,-2.23523 0.77461,-2.54979 0.43461,-0.12554 0.90961,-0.0964 1.35676,-0.0971 z"
           id="path1-3"
           sodipodi:nodetypes="ccccccccccccccsssccsssccsssccsssscscscccsssscssccssssccssscccsscccsssccscccscccccsssssssccccccccsccssscc" /><path
           style="display:inline;fill:#9e5477;fill-opacity:1;stroke:none"
           d="m -52.475798,-129.29401 v 21.87979 h 6.10599 v -5.76677 l 3.19316,0.17433 4.13139,5.44024 2.00404,0.15233 4.57949,-1.3e-4 -4.57949,-6.78443 c 5.4676,-2.58655 5.62566,-10.62771 0.50884,-13.66152 -4.34885,-2.57848 -11.0938,-1.43384 -15.94342,-1.43384 m 27.81617,15.09536 h 6.2756 c 1.24635,0 4.68057,0.60491 5.66442,-0.17432 0.4534,-0.3591 0.27276,-1.35592 0.27196,-1.86101 -0.003,-2.11513 -0.73196,-4.21916 -2.22078,-5.75996 -4.55246,-4.71139 -14.14829,-2.84424 -15.81463,3.72463 -0.42786,1.68666 -0.42492,3.59491 0.11765,5.25794 1.60558,4.92125 7.13109,6.56908 11.81177,5.78024 1.26563,-0.2133 4.29274,-0.92495 4.69047,-2.40334 0.19292,-0.71708 -2.13949,-3.11473 -2.83993,-3.22313 -0.66901,-0.10353 -1.55093,0.759 -2.18976,0.97199 -2.2081,0.73617 -4.88265,-0.031 -5.76677,-2.31304 m 27.3073302,4.07066 c -0.1263,6.11951 -6.73081,4.71865 -10.34625,2.71377 -0.46173,0.87756 -2.21992,3.22295 -1.82489,4.20834 0.46429,1.15814 3.28319,1.69235 4.36905,1.88338 4.15626998,0.7312 9.544,0.64223 12.20268,-3.20834 2.67974,-3.88107 1.53579,-10.2902 1.53579,-14.75613 0,-1.08732 0.51166,-3.95025 -0.17432,-4.81637 -0.26384,-0.33312 -0.80786,-0.26923 -1.18257,-0.27182 -0.9539,-0.007 -3.37163,-0.43272 -4.13792,0.17419 -0.42721,0.33835 -0.2719,1.21329 -0.27196,1.69139 -1.40744,-1.34298 -2.96597002,-2.02577 -4.91871,-2.03519 -1.4928,-0.007 -2.8737,0.1842 -4.24027,0.82934 -1.07549,0.50772 -2.04333,1.26917 -2.75434,2.22352 -2.1387402,2.87068 -2.2760202,7.08187 -0.14134,10.00703 2.68315,3.67675 8.50224998,4.44252 11.88505,1.35689 m 14.7561398,-4.07066 h 6.2756 c 1.24636,0 4.68057,0.60491 5.66442,-0.17432 0.45341,-0.3591 0.27276,-1.35591 0.27196,-1.86101 -0.003,-2.09766 -0.71913,-4.23772 -2.22078,-5.75145 -4.59846,-4.63544 -14.1292,-2.92802 -15.81463,3.71612 -0.42786,1.68666 -0.42492,3.59491 0.11765,5.25794 1.60307,4.91357 7.13762,6.56798 11.81177,5.78024 1.26564,-0.2133 4.29273,-0.92494 4.69046,-2.40334 0.19293,-0.71709 -2.13949,-3.11473 -2.83992,-3.22313 -0.66902,-0.10353 -1.55091,0.759 -2.18976,0.97199 -2.20809,0.73617 -4.88265,-0.031 -5.76677,-2.31304 m 20.69251,-8.48054 c -0.002,-2.2544 -1.75513,-1.69611 -3.56182,-1.69611 -0.56527,0 -1.79522,-0.23154 -2.1026,0.39314 -0.57186,1.16216 -0.10234,3.5743 -0.10234,4.8648 v 11.70314 l 5.93637,0.16961 c 0,-3.09887 -0.68838,-7.23764 0.43476,-10.17664 0.71121,-1.86111 3.2695,-2.76867 4.80486,-1.32064 0.96184,0.90715 1.02985,2.45004 1.03586,3.69519 0.0123,2.54403 1.2e-4,5.08841 1.2e-4,7.63248 h 5.93638 c 0,-5.52855 1.98626,-16.30909 -5.93638,-17.10176 -0.93896,-0.094 -1.95816,-0.077 -2.88338,0.1081 -1.34949,0.26995 -2.43045,0.99042 -3.56183,1.72869 m 21.03174,8.48054 h 6.2756 c 1.29384,0 4.62363,0.6015 5.67111,-0.17432 0.57536,-0.42612 0.45964,-1.5863 0.38645,-2.20023 -0.24649,-2.06775 -0.84617,-3.9031 -2.33294,-5.42506 -4.66841,-4.7789 -13.88889,-2.72837 -15.76032,3.72895 -0.51254,1.76853 -0.42485,3.69008 0.17642,5.42755 1.65244,4.77491 7.09428,6.38973 11.68967,5.6389 1.2921,-0.21111 4.29526,-0.90369 4.69061,-2.41878 0.22655,-0.86821 -2.01278,-3.12619 -2.82489,-3.2145 -0.71387,-0.0776 -1.66795,0.79717 -2.37456,1.00471 -2.26322,0.66475 -4.57667,-0.22262 -5.59715,-2.36722 m 20.69251,-8.31093 v -1.86572 h -5.59715 v 16.96108 h 5.93637 c 0,-3.06112 -1.26549,-9.49772 1.86585,-11.30176 1.10607,-0.63724 2.33252,-0.57099 3.5617,-0.57099 v -5.25794 c -2.35906,2.7e-4 -3.85707,0.73079 -5.76677,2.03533 m 7.97171,-0.16961 1.86572,4.07066 c 2.74023,-0.99718 7.10818,-2.91998 8.31093,1.18728 -1.93254,0 -3.84788,-0.0401 -5.76677,0.21855 -0.98344,0.13254 -2.02651,0.36326 -2.88338,0.88039 -0.66182,0.3994 -1.26086,0.94693 -1.65802,1.61483 -2.56333,4.3108 1.99852,7.65091 5.89829,7.63235 1.74915,-0.008 3.77586,-0.48649 4.57949,-2.20481 h 0.16961 l 0.16961,2.03533 5.427538,-0.16961 c 0,-4.032 0.95245,-9.47596 -0.70788,-13.22964 -2.42545,-5.48341 -11.192348,-4.49372 -15.405138,-2.03533 m -134.16212,4.7491 v -4.40988 c 0,-0.49363 -0.15464,-1.34802 0.17432,-1.76337 0.42975,-0.54261 1.92394,-0.27295 2.53945,-0.27196 1.36554,0.002 2.90163,0.0979 3.86245,1.19473 1.93237,2.20596 -0.0137,4.9533 -2.50556,5.22104 -1.33303,0.14322 -2.73043,0.0294 -4.07066,0.0294 m 28.325,0.50884 h -6.78443 c 0.57196,-3.80167 6.21135,-3.80643 6.78443,0 m 42.06347,0 h -6.78443 c 0.57196,-3.80166 6.21135,-3.80644 6.78443,0 m 41.72425,0 h -6.61482 c 0.19855,-3.81815 6.40819,-3.81859 6.61482,0 m -67.5050898,-2.32351 c 1.38900998,-0.20516 2.92189,0.12924 3.79099,1.31265 1.43367,1.95216 0.30193,4.94378 -2.09488002,5.36498 -1.53305998,0.26942 -3.21394998,-0.11932 -4.12103998,-1.47139 -1.39293,-2.07625 0.0794,-4.85981 2.42493,-5.20624 m 99.7311398,5.54611 c -4.2e-4,0.62875 0.046,1.28675 -0.24709,1.86507 -0.7446,1.46899 -3.2553,2.13146 -4.4481,0.81062 -0.88127,-0.97588 -0.17634,-2.30665 0.96387,-2.58526 0.38784,-0.0948 0.79083,-0.0884 1.18715,-0.0903 l 2.54417,-1.3e-4"
           id="path1-9-5"
           sodipodi:nodetypes="cccccccccsccsscssssssscccssssscsccsssccsscsssssssccsssccssscccsccssssssssssccccccsccccccssscccccsccsscsscccccccccccssscccsscc" /></g></g></g></svg>
