<?xml version="1.0" encoding="UTF-8" standalone="no"?>
<!-- Created with Inkscape (http://www.inkscape.org/) -->

<svg
   width="1200"
   height="1200"
   viewBox="0 0 317.49999 317.5"
   version="1.1"
   id="svg1"
   inkscape:version="1.3.2 (091e20ef0f, 2023-11-25)"
   sodipodi:docname="Profile.svg"
   xml:space="preserve"
   inkscape:export-filename="Profile.png"
   inkscape:export-xdpi="96"
   inkscape:export-ydpi="96"
   xmlns:inkscape="http://www.inkscape.org/namespaces/inkscape"
   xmlns:sodipodi="http://sodipodi.sourceforge.net/DTD/sodipodi-0.dtd"
   xmlns:xlink="http://www.w3.org/1999/xlink"
   xmlns="http://www.w3.org/2000/svg"
   xmlns:svg="http://www.w3.org/2000/svg"><sodipodi:namedview
     id="namedview1"
     pagecolor="#505050"
     bordercolor="#eeeeee"
     borderopacity="1"
     inkscape:showpageshadow="0"
     inkscape:pageopacity="0"
     inkscape:pagecheckerboard="0"
     inkscape:deskcolor="#505050"
     inkscape:document-units="px"
     inkscape:zoom="0.5"
     inkscape:cx="464"
     inkscape:cy="499"
     inkscape:window-width="1920"
     inkscape:window-height="1011"
     inkscape:window-x="0"
     inkscape:window-y="32"
     inkscape:window-maximized="1"
     inkscape:current-layer="svg1"
     inkscape:lockguides="false"
     showguides="true"><sodipodi:guide
       position="26.428897,2663.0665"
       orientation="1,0"
       id="guide2"
       inkscape:locked="false" /><sodipodi:guide
       position="370.45367,2660.4427"
       orientation="1,0"
       id="guide3"
       inkscape:locked="false" /><sodipodi:guide
       position="229.58587,2619.375"
       orientation="0,-1"
       id="guide88"
       inkscape:locked="false" /><sodipodi:guide
       position="353.2234,2106.6438"
       orientation="0,-1"
       id="guide4"
       inkscape:locked="false" /><sodipodi:guide
       position="317.30238,2159.4028"
       orientation="0,-1"
       id="guide5"
       inkscape:locked="false" /></sodipodi:namedview><defs
     id="defs1"><linearGradient
       id="linearGradient23"
       inkscape:collect="always"><stop
         style="stop-color:#ffffff;stop-opacity:1;"
         offset="0"
         id="stop23" /><stop
         style="stop-color:#ffffff;stop-opacity:0;"
         offset="1"
         id="stop24" /></linearGradient><linearGradient
       id="linearGradient32"
       inkscape:collect="always"><stop
         style="stop-color:#ffffff;stop-opacity:1;"
         offset="0"
         id="stop32" /><stop
         style="stop-color:#ffffff;stop-opacity:0;"
         offset="1"
         id="stop33" /></linearGradient><filter
       style="color-interpolation-filters:sRGB"
       inkscape:label="Drop Shadow"
       id="filter28"
       x="-0.024715452"
       y="-0.11687213"
       width="1.0494308"
       height="1.2337443"><feFlood
         result="flood"
         in="SourceGraphic"
         flood-opacity="0.050980"
         flood-color="rgb(0,0,0)"
         id="feFlood27" /><feGaussianBlur
         result="blur"
         in="SourceGraphic"
         stdDeviation="1.000000"
         id="feGaussianBlur27" /><feOffset
         result="offset"
         in="blur"
         dx="0.000000"
         dy="0.000000"
         id="feOffset27" /><feComposite
         result="comp1"
         operator="in"
         in="flood"
         in2="offset"
         id="feComposite27" /><feComposite
         result="comp2"
         operator="over"
         in="SourceGraphic"
         in2="comp1"
         id="feComposite28" /></filter><radialGradient
       inkscape:collect="always"
       xlink:href="#linearGradient32"
       id="radialGradient33"
       cx="132.99959"
       cy="74.502747"
       fx="132.99959"
       fy="74.502747"
       r="72.287643"
       gradientTransform="matrix(0.94600342,0,1.9891543e-5,0.57581722,7.2489434,30.830686)"
       gradientUnits="userSpaceOnUse" /><filter
       style="color-interpolation-filters:sRGB"
       inkscape:label="Drop Shadow"
       id="filter28-2"
       x="-0.024715452"
       y="-0.11687213"
       width="1.0494308"
       height="1.2337443"><feFlood
         result="flood"
         in="SourceGraphic"
         flood-opacity="0.050980"
         flood-color="rgb(0,0,0)"
         id="feFlood27-8" /><feGaussianBlur
         result="blur"
         in="SourceGraphic"
         stdDeviation="1.000000"
         id="feGaussianBlur27-9" /><feOffset
         result="offset"
         in="blur"
         dx="0.000000"
         dy="0.000000"
         id="feOffset27-3" /><feComposite
         result="comp1"
         operator="in"
         in="flood"
         in2="offset"
         id="feComposite27-6" /><feComposite
         result="comp2"
         operator="over"
         in="SourceGraphic"
         in2="comp1"
         id="feComposite28-8" /></filter><linearGradient
       inkscape:collect="always"
       xlink:href="#linearGradient32"
       id="linearGradient25"
       x1="-67.604012"
       y1="115.30021"
       x2="5.9257412"
       y2="64.200798"
       gradientUnits="userSpaceOnUse"
       gradientTransform="matrix(0.9459372,-0.36199868,0.32434984,1.0557367,0,0)" /><linearGradient
       inkscape:collect="always"
       xlink:href="#linearGradient23"
       id="linearGradient26"
       gradientUnits="userSpaceOnUse"
       x1="281.38907"
       y1="178.93137"
       x2="246.96414"
       y2="120.21905"
       gradientTransform="matrix(0.8,0,0,1.1160746,0,48.154196)" /><clipPath
       clipPathUnits="userSpaceOnUse"
       id="clipPath47"><ellipse
         style="opacity:1;fill:#2a475d;fill-opacity:0.674055;stroke:none;stroke-width:0.0539472;stroke-dasharray:none"
         id="ellipse47"
         cx="-428.71603"
         cy="454.30557"
         rx="30.891764"
         ry="30.809238" /></clipPath><clipPath
       clipPathUnits="userSpaceOnUse"
       id="clipPath48"><ellipse
         style="display:inline;fill:#2a475d;fill-opacity:0.674055;stroke:none;stroke-width:0.0539472;stroke-dasharray:none"
         id="ellipse48"
         cx="-577.37988"
         cy="449.10739"
         rx="30.891764"
         ry="30.809238" /></clipPath><clipPath
       clipPathUnits="userSpaceOnUse"
       id="clipPath49"><ellipse
         style="display:inline;fill:#2a475d;fill-opacity:0.674055;stroke:none;stroke-width:0.0539472;stroke-dasharray:none"
         id="ellipse49"
         cx="-601.49017"
         cy="457.68695"
         rx="30.891764"
         ry="30.809238" /></clipPath><clipPath
       clipPathUnits="userSpaceOnUse"
       id="clipPath50"><ellipse
         style="display:inline;fill:#2a475d;fill-opacity:0.674055;stroke:none;stroke-width:0.0539472;stroke-dasharray:none"
         id="ellipse50"
         cx="-688.37939"
         cy="456.09943"
         rx="30.891764"
         ry="30.809238" /></clipPath><clipPath
       clipPathUnits="userSpaceOnUse"
       id="clipPath51"><ellipse
         style="opacity:1;fill:#2a475d;fill-opacity:0.674055;stroke:none;stroke-width:0.264583;stroke-dasharray:none"
         id="ellipse51"
         cx="516.22223"
         cy="-57.842674"
         rx="71.012306"
         ry="71.550369" /></clipPath><clipPath
       clipPathUnits="userSpaceOnUse"
       id="clipPath49-0"><ellipse
         style="display:inline;fill:#2a475d;fill-opacity:0.674055;stroke:none;stroke-width:0.0539472;stroke-dasharray:none"
         id="ellipse49-6"
         cx="-601.49017"
         cy="457.68695"
         rx="30.891764"
         ry="30.809238" /></clipPath><clipPath
       clipPathUnits="userSpaceOnUse"
       id="clipPath47-4"><ellipse
         style="opacity:1;fill:#2a475d;fill-opacity:0.674055;stroke:none;stroke-width:0.0539472;stroke-dasharray:none"
         id="ellipse47-9"
         cx="-428.71603"
         cy="454.30557"
         rx="30.891764"
         ry="30.809238" /></clipPath><clipPath
       clipPathUnits="userSpaceOnUse"
       id="clipPath50-1"><ellipse
         style="display:inline;fill:#2a475d;fill-opacity:0.674055;stroke:none;stroke-width:0.0539472;stroke-dasharray:none"
         id="ellipse50-7"
         cx="-688.37939"
         cy="456.09943"
         rx="30.891764"
         ry="30.809238" /></clipPath><clipPath
       clipPathUnits="userSpaceOnUse"
       id="clipPath48-9"><ellipse
         style="display:inline;fill:#2a475d;fill-opacity:0.674055;stroke:none;stroke-width:0.0539472;stroke-dasharray:none"
         id="ellipse48-4"
         cx="-577.37988"
         cy="449.10739"
         rx="30.891764"
         ry="30.809238" /></clipPath><clipPath
       clipPathUnits="userSpaceOnUse"
       id="clipPath49-9"><ellipse
         style="display:inline;fill:#2a475d;fill-opacity:0.674055;stroke:none;stroke-width:0.0539472;stroke-dasharray:none"
         id="ellipse49-0"
         cx="-601.49017"
         cy="457.68695"
         rx="30.891764"
         ry="30.809238" /></clipPath><clipPath
       clipPathUnits="userSpaceOnUse"
       id="clipPath47-9"><ellipse
         style="opacity:1;fill:#2a475d;fill-opacity:0.674055;stroke:none;stroke-width:0.0539472;stroke-dasharray:none"
         id="ellipse47-1"
         cx="-428.71603"
         cy="454.30557"
         rx="30.891764"
         ry="30.809238" /></clipPath><clipPath
       clipPathUnits="userSpaceOnUse"
       id="clipPath76"><circle
         style="opacity:1;fill:#ffffff;fill-opacity:0.572513;stroke:none;stroke-width:0.79375;stroke-dasharray:none;stroke-opacity:1"
         id="circle76"
         cx="-118.87765"
         cy="368.99219"
         r="118.87765" /></clipPath><clipPath
       clipPathUnits="userSpaceOnUse"
       id="clipPath77"><circle
         style="display:inline;fill:#ffffff;fill-opacity:0.572513;stroke:none;stroke-width:0.373642;stroke-dasharray:none;stroke-opacity:1"
         id="circle77"
         cx="-475.82178"
         cy="368.99219"
         r="55.959373" /></clipPath><clipPath
       clipPathUnits="userSpaceOnUse"
       id="clipPath78"><circle
         style="display:inline;fill:#ffffff;fill-opacity:0.572513;stroke:none;stroke-width:0.261435;stroke-dasharray:none;stroke-opacity:1"
         id="circle78"
         cx="-557.53564"
         cy="364.67551"
         r="39.154339" /></clipPath><clipPath
       clipPathUnits="userSpaceOnUse"
       id="clipPath78-4"><circle
         style="display:inline;fill:#ffffff;fill-opacity:0.572513;stroke:none;stroke-width:0.261435;stroke-dasharray:none;stroke-opacity:1"
         id="circle78-7"
         cx="-557.53564"
         cy="364.67551"
         r="39.154339" /></clipPath><clipPath
       clipPathUnits="userSpaceOnUse"
       id="clipPath77-6"><circle
         style="display:inline;fill:#ffffff;fill-opacity:0.572513;stroke:none;stroke-width:0.373642;stroke-dasharray:none;stroke-opacity:1"
         id="circle77-3"
         cx="-475.82178"
         cy="368.99219"
         r="55.959373" /></clipPath><clipPath
       clipPathUnits="userSpaceOnUse"
       id="clipPath76-1"><circle
         style="opacity:1;fill:#ffffff;fill-opacity:0.572513;stroke:none;stroke-width:0.79375;stroke-dasharray:none;stroke-opacity:1"
         id="circle76-7"
         cx="-118.87765"
         cy="368.99219"
         r="118.87765" /></clipPath><clipPath
       clipPathUnits="userSpaceOnUse"
       id="clipPath78-4-2"><circle
         style="display:inline;fill:#ffffff;fill-opacity:0.572513;stroke:none;stroke-width:0.261435;stroke-dasharray:none;stroke-opacity:1"
         id="circle78-7-1"
         cx="-557.53564"
         cy="364.67551"
         r="39.154339" /></clipPath><clipPath
       clipPathUnits="userSpaceOnUse"
       id="clipPath77-6-7"><circle
         style="display:inline;fill:#ffffff;fill-opacity:0.572513;stroke:none;stroke-width:0.373642;stroke-dasharray:none;stroke-opacity:1"
         id="circle77-3-4"
         cx="-475.82178"
         cy="368.99219"
         r="55.959373" /></clipPath><clipPath
       clipPathUnits="userSpaceOnUse"
       id="clipPath76-1-9"><circle
         style="opacity:1;fill:#ffffff;fill-opacity:0.572513;stroke:none;stroke-width:0.79375;stroke-dasharray:none;stroke-opacity:1"
         id="circle76-7-7"
         cx="-118.87765"
         cy="368.99219"
         r="118.87765" /></clipPath><clipPath
       clipPathUnits="userSpaceOnUse"
       id="clipPath79"><circle
         style="opacity:1;fill:#ffffff;fill-opacity:0.572513;stroke:none;stroke-width:0.329863;stroke-dasharray:none;stroke-opacity:1"
         id="circle79"
         cx="523.1651"
         cy="100.36556"
         r="18.403831" /></clipPath><clipPath
       clipPathUnits="userSpaceOnUse"
       id="clipPath79-6"><circle
         style="opacity:1;fill:#ffffff;fill-opacity:0.572513;stroke:none;stroke-width:0.329863;stroke-dasharray:none;stroke-opacity:1"
         id="circle79-4"
         cx="523.1651"
         cy="100.36556"
         r="18.403831" /></clipPath><clipPath
       clipPathUnits="userSpaceOnUse"
       id="clipPath78-4-2-8"><circle
         style="display:inline;fill:#ffffff;fill-opacity:0.572513;stroke:none;stroke-width:0.261435;stroke-dasharray:none;stroke-opacity:1"
         id="circle78-7-1-6"
         cx="-557.53564"
         cy="364.67551"
         r="39.154339" /></clipPath><filter
       style="color-interpolation-filters:sRGB"
       inkscape:label="Drop Shadow"
       id="filter33"
       x="-0.013949368"
       y="-0.10686802"
       width="1.0278987"
       height="1.2137361"><feFlood
         result="flood"
         in="SourceGraphic"
         flood-opacity="0.125490"
         flood-color="rgb(0,0,0)"
         id="feFlood32" /><feGaussianBlur
         result="blur"
         in="SourceGraphic"
         stdDeviation="2.003239"
         id="feGaussianBlur32" /><feOffset
         result="offset"
         in="blur"
         dx="0.000000"
         dy="0.000000"
         id="feOffset32" /><feComposite
         result="comp1"
         operator="in"
         in="flood"
         in2="offset"
         id="feComposite32" /><feComposite
         result="comp2"
         operator="over"
         in="SourceGraphic"
         in2="comp1"
         id="feComposite33" /></filter><filter
       style="color-interpolation-filters:sRGB"
       inkscape:label="Drop Shadow"
       id="filter33-9"
       x="-0.043831777"
       y="-0.047075696"
       width="1.0876635"
       height="1.0941514"><feFlood
         result="flood"
         in="SourceGraphic"
         flood-opacity="0.125490"
         flood-color="rgb(0,0,0)"
         id="feFlood32-3" /><feGaussianBlur
         result="blur"
         in="SourceGraphic"
         stdDeviation="2.003239"
         id="feGaussianBlur32-6" /><feOffset
         result="offset"
         in="blur"
         dx="0.000000"
         dy="0.000000"
         id="feOffset32-0" /><feComposite
         result="comp1"
         operator="in"
         in="flood"
         in2="offset"
         id="feComposite32-6" /><feComposite
         result="comp2"
         operator="over"
         in="SourceGraphic"
         in2="comp1"
         id="feComposite33-2" /></filter><filter
       style="color-interpolation-filters:sRGB"
       inkscape:label="Drop Shadow"
       id="filter33-9-9"
       x="-0.043831777"
       y="-0.047075696"
       width="1.0876635"
       height="1.0941514"><feFlood
         result="flood"
         in="SourceGraphic"
         flood-opacity="0.125490"
         flood-color="rgb(0,0,0)"
         id="feFlood32-3-2" /><feGaussianBlur
         result="blur"
         in="SourceGraphic"
         stdDeviation="2.003239"
         id="feGaussianBlur32-6-0" /><feOffset
         result="offset"
         in="blur"
         dx="0.000000"
         dy="0.000000"
         id="feOffset32-0-2" /><feComposite
         result="comp1"
         operator="in"
         in="flood"
         in2="offset"
         id="feComposite32-6-3" /><feComposite
         result="comp2"
         operator="over"
         in="SourceGraphic"
         in2="comp1"
         id="feComposite33-2-7" /></filter><filter
       style="color-interpolation-filters:sRGB"
       inkscape:label="Drop Shadow"
       id="filter33-4"
       x="-0.045076322"
       y="-0.048412353"
       width="1.0901526"
       height="1.0968246"><feFlood
         result="flood"
         in="SourceGraphic"
         flood-opacity="0.125490"
         flood-color="rgb(0,0,0)"
         id="feFlood32-31" /><feGaussianBlur
         result="blur"
         in="SourceGraphic"
         stdDeviation="2.003239"
         id="feGaussianBlur32-4" /><feOffset
         result="offset"
         in="blur"
         dx="0.000000"
         dy="0.000000"
         id="feOffset32-9" /><feComposite
         result="comp1"
         operator="in"
         in="flood"
         in2="offset"
         id="feComposite32-2" /><feComposite
         result="comp2"
         operator="over"
         in="SourceGraphic"
         in2="comp1"
         id="feComposite33-0" /></filter><filter
       style="color-interpolation-filters:sRGB"
       inkscape:label="Drop Shadow"
       id="filter33-4-6"
       x="-0.045076322"
       y="-0.048412353"
       width="1.0901526"
       height="1.0968246"><feFlood
         result="flood"
         in="SourceGraphic"
         flood-opacity="0.125490"
         flood-color="rgb(0,0,0)"
         id="feFlood32-31-6" /><feGaussianBlur
         result="blur"
         in="SourceGraphic"
         stdDeviation="2.003239"
         id="feGaussianBlur32-4-4" /><feOffset
         result="offset"
         in="blur"
         dx="0.000000"
         dy="0.000000"
         id="feOffset32-9-9" /><feComposite
         result="comp1"
         operator="in"
         in="flood"
         in2="offset"
         id="feComposite32-2-5" /><feComposite
         result="comp2"
         operator="over"
         in="SourceGraphic"
         in2="comp1"
         id="feComposite33-0-0" /></filter><filter
       style="color-interpolation-filters:sRGB"
       inkscape:label="Drop Shadow"
       id="filter28-2-3"
       x="-0.031559132"
       y="-0.11805771"
       width="1.0631183"
       height="1.2361155"><feFlood
         result="flood"
         in="SourceGraphic"
         flood-opacity="0.050980"
         flood-color="rgb(0,0,0)"
         id="feFlood27-8-8" /><feGaussianBlur
         result="blur"
         in="SourceGraphic"
         stdDeviation="1.000000"
         id="feGaussianBlur27-9-8" /><feOffset
         result="offset"
         in="blur"
         dx="0.000000"
         dy="0.000000"
         id="feOffset27-3-3" /><feComposite
         result="comp1"
         operator="in"
         in="flood"
         in2="offset"
         id="feComposite27-6-1" /><feComposite
         result="comp2"
         operator="over"
         in="SourceGraphic"
         in2="comp1"
         id="feComposite28-8-8" /></filter><filter
       style="color-interpolation-filters:sRGB"
       inkscape:label="Drop Shadow"
       id="filter126"
       x="-0.025022643"
       y="-0.22768256"
       width="1.0500453"
       height="1.4553651"><feFlood
         result="flood"
         in="SourceGraphic"
         flood-opacity="0.337255"
         flood-color="rgb(0,0,0)"
         id="feFlood125" /><feGaussianBlur
         result="blur"
         in="SourceGraphic"
         stdDeviation="0.400000"
         id="feGaussianBlur125" /><feOffset
         result="offset"
         in="blur"
         dx="0.000000"
         dy="0.000000"
         id="feOffset125" /><feComposite
         result="comp1"
         operator="in"
         in="flood"
         in2="offset"
         id="feComposite125" /><feComposite
         result="comp2"
         operator="over"
         in="SourceGraphic"
         in2="comp1"
         id="feComposite126" /></filter></defs><rect
     style="fill:#f3edeb;fill-opacity:1;stroke-width:0.302545"
     id="rect2"
     width="317.5"
     height="317.49997"
     x="5.5511151e-17"
     y="1.982547e-14"
     inkscape:label="Fundo Cor" /><path
     style="display:inline;fill:url(#linearGradient26);fill-opacity:1;stroke-width:0.250008"
     d="M 317.49999,174.27933 V 77.683675 H 0 V 299.155 H 65.775589 C 184.01451,296.83297 190.59522,189.56481 317.49999,174.27933 Z"
     id="path25"
     sodipodi:nodetypes="cccccc"
     inkscape:label="Fundo Detalhe Baixo" /><path
     id="path24"
     style="display:inline;fill:url(#linearGradient25);fill-opacity:1;stroke-width:0.279517"
     d="M 229.58587,29.529483 C 156.11543,104.27578 66.073643,126.12488 5.8648958e-8,106.015 L -2.0500296e-7,29.529478 Z"
     sodipodi:nodetypes="cccc"
     inkscape:label="Fundo Detalhe Cima" /><g
     id="g33"
     inkscape:label="Logo Completo"
     style="display:inline"
     transform="matrix(0.62104567,0,0,0.62104567,298.10136,59.843956)"><ellipse
       style="display:inline;opacity:1;fill:url(#radialGradient33);fill-opacity:1;stroke-width:0.264583"
       id="path32"
       cx="129.42119"
       cy="72.682549"
       rx="72.287643"
       ry="41.62447"
       transform="matrix(3.1221063,0,0,3.1221063,-627.21277,-92.621208)"
       inkscape:label="Realce" /><path
       style="display:inline;fill:#f3edeb;fill-opacity:1"
       d="m -175.75987,162.83795 c -0.50932,-0.0602 -2.77151,-0.37645 -5.02708,-0.70282 -3.50457,-0.50708 -4.54359,-0.55938 -7.14375,-0.35959 -5.90155,0.45347 -9.12174,-0.10002 -12.776,-2.19596 -6.81793,-3.91049 -12.35757,-8.05837 -13.70938,-10.26507 l -0.38022,-0.62068 -1.05314,0.97405 c -1.99029,1.84081 -4.30661,2.72239 -9.35453,3.56028 -4.15589,0.68982 -8.55019,0.69717 -13.3012,0.0222 -4.68257,-0.66521 -6.32559,-1.05797 -10.0165,-2.39446 -5.26532,-1.9066 -9.0845,-3.16972 -9.58398,-3.16972 -0.96487,0 -3.35659,-1.02323 -5.00183,-2.1399 -2.27319,-1.54288 -4.92436,-4.25066 -7.7488,-7.91426 -3.30374,-4.28531 -4.65492,-7.43511 -4.64892,-10.83736 0.005,-2.83107 1.46737,-4.79416 5.42628,-7.28419 1.5286,-0.96144 3.83155,-2.96614 3.83155,-3.33534 0,-0.099 -0.41671,-0.25823 -0.92603,-0.35378 -0.50932,-0.0956 -2.0869,-0.7559 -3.50573,-1.46744 -2.88284,-1.44575 -5.22967,-3.55608 -7.36696,-6.6246 -3.55259,-5.10048 -9.23709,-18.899573 -10.28502,-24.966843 -0.51686,-2.99252 -0.54156,-8.5935 -0.0431,-9.76343 0.88743,-2.0827 2.08783,-2.4644 5.18272,-1.64798 0.79275,0.20912 1.47491,0.34667 1.51591,0.30567 0.041,-0.041 -0.0554,-0.72122 -0.21431,-1.51161 -0.39919,-1.98594 0.0611,-3.29446 1.48728,-4.22762 1.2369,-0.80933 7.88936,-3.74649 10.48551,-4.62949 3.74884,-1.27507 9.66606,-2.12755 12.06439,-1.7381 2.18646,0.35505 4.34325,1.22873 6.34201,2.56905 0.95565,0.64083 1.7813,1.16514 1.83479,1.16514 0.0535,0 0.0973,-0.55026 0.0973,-1.22281 0,-3.67025 1.56592,-10.13998 3.0981,-12.8001 3.36988,-5.85065 10.76098,-11.17473 22.96176,-16.54019 4.12753,-1.81513 4.36123,-1.87509 5.61069,-1.43953 0.66079,0.23036 0.99353,0.70532 1.99258,2.84427 0.65962,1.41226 1.44343,3.16305 1.7418,3.89066 0.33692,0.82162 0.59477,1.17253 0.68047,0.92604 0.0759,-0.21828 0.33805,-1.11125 0.58256,-1.98438 0.60003,-2.14264 1.61762,-4.42483 2.15301,-4.82864 0.66691,-0.503 2.15626,-0.38623 3.82429,0.29983 4.41193,1.81463 13.90255,9.7928 16.90006,14.20682 1.35772,1.99933 2.93977,5.38479 3.51412,7.51991 0.86594,3.21911 1.03096,6.38269 0.58711,11.2551 -0.22612,2.48225 -0.41113,4.67328 -0.41113,4.86896 0,0.26104 0.53001,0.14998 1.99017,-0.417 5.08221,-1.97343 15.20548,-2.07533 21.00263,-0.21141 3.22789,1.03784 6.29376,2.90813 9.69258,5.91283 3.32891,2.9429 3.93995,4.47396 2.73117,6.84337 -0.83979,1.64612 -5.15559,8.05467 -6.48243,9.62576 -0.63408,0.75082 -1.15287,1.4139 -1.15287,1.47353 0,0.0596 0.8632,0.001 1.91823,-0.1302 2.40528,-0.29921 7.28599,-0.12634 8.0486,0.28506 0.93162,0.502594 1.23993,1.940724 1.05651,4.928184 -0.90297,14.706929 -5.47978,25.526289 -12.87901,30.445279 -3.54848,2.35903 -8.23322,4.09866 -11.03745,4.09866 -0.76691,0 -1.39202,0.0298 -1.38913,0.0661 0.003,0.0364 2.53297,2.62666 5.6224,5.75617 8.81218,8.92654 11.16758,12.04833 11.49673,15.23751 0.12997,1.25929 0.0569,1.54168 -0.7074,2.73269 -0.46879,0.73055 -1.26392,1.68964 -1.76695,2.13131 -1.05942,0.93018 -3.61654,2.27131 -5.36687,2.81474 -2.97087,0.92239 -8.71091,1.37677 -12.19358,0.96523 z"
       id="path29-4"
       sodipodi:nodetypes="csssscssssssssssssssssscssssssssssssssssssssssssscsssscssssscc"
       inkscape:label="Logo Marca Cor" /><path
       style="display:inline;fill:#ad494e"
       d="m -175.75986,162.83794 c -0.50932,-0.0602 -2.77151,-0.37644 -5.02708,-0.70281 -3.50457,-0.50709 -4.54359,-0.55939 -7.14375,-0.3596 -5.90155,0.45348 -9.12174,-0.10001 -12.776,-2.19596 -6.81793,-3.91049 -12.35757,-8.05837 -13.70938,-10.26507 l -0.38022,-0.62068 -1.05314,0.97405 c -1.99029,1.84082 -4.30661,2.72239 -9.35453,3.56029 -4.15589,0.68982 -8.5502,0.69716 -13.3012,0.0222 -4.68257,-0.66522 -6.32559,-1.05798 -10.01651,-2.39447 -5.26532,-1.9066 -9.0845,-3.16972 -9.58398,-3.16972 -0.96487,0 -3.35659,-1.02323 -5.00183,-2.1399 -2.27319,-1.54288 -4.92435,-4.25066 -7.7488,-7.91426 -3.30374,-4.28531 -4.65492,-7.43511 -4.64892,-10.83736 0.005,-2.83107 1.46738,-4.79416 5.42629,-7.28419 1.5286,-0.96144 3.83155,-2.96614 3.83155,-3.33534 0,-0.099 -0.41672,-0.25823 -0.92604,-0.35378 -0.50932,-0.0956 -2.0869,-0.7559 -3.50572,-1.46744 -2.88284,-1.44575 -5.22967,-3.55608 -7.36696,-6.6246 -3.5526,-5.10048 -9.2371,-18.89956 -10.28502,-24.96683 -0.51686,-2.99252 -0.54156,-8.5935 -0.0431,-9.76343 0.88743,-2.0827 2.08783,-2.4644 5.18272,-1.64798 0.79275,0.20912 1.47491,0.34667 1.51591,0.30567 0.041,-0.041 -0.0554,-0.72122 -0.21431,-1.51161 -0.39919,-1.98594 0.0611,-3.29446 1.48728,-4.22762 1.2369,-0.80933 7.88936,-3.74649 10.48551,-4.62949 3.74884,-1.27507 9.66606,-2.12755 12.06439,-1.7381 2.18646,0.35505 4.34325,1.22873 6.34201,2.56905 0.95565,0.64083 1.7813,1.16514 1.83479,1.16514 0.0535,0 0.0973,-0.55026 0.0973,-1.22281 0,-3.67025 1.56592,-10.13998 3.0981,-12.8001 3.36988,-5.85065 10.76098,-11.17473 22.96176,-16.54019 4.12753,-1.81513 4.36123,-1.87509 5.61069,-1.43953 0.66079,0.23036 0.99353,0.70532 1.99258,2.84427 0.65962,1.41226 1.44343,3.16305 1.7418,3.89066 0.33692,0.82162 0.59477,1.17253 0.68047,0.92604 0.0759,-0.21828 0.33805,-1.11125 0.58256,-1.98438 0.60003,-2.14264 1.61762,-4.42483 2.15301,-4.82864 0.66691,-0.503 2.15626,-0.38623 3.82429,0.29983 4.41193,1.81463 13.90255,9.7928 16.90006,14.20682 1.35772,1.99933 2.93977,5.38479 3.51412,7.51991 0.86594,3.21911 1.03096,6.38269 0.58711,11.2551 -0.22612,2.48225 -0.41113,4.67328 -0.41113,4.86896 0,0.26104 0.53001,0.14998 1.99017,-0.417 5.08221,-1.97343 15.20548,-2.07533 21.00263,-0.21141 3.22789,1.03784 6.29376,2.90813 9.69258,5.91283 3.32891,2.9429 3.93995,4.47396 2.73117,6.84337 -0.83979,1.64612 -5.15559,8.05467 -6.48243,9.62576 -0.63408,0.75082 -1.15287,1.4139 -1.15287,1.47353 0,0.0596 0.8632,0.001 1.91823,-0.1302 2.40528,-0.29921 7.28598,-0.12634 8.04859,0.28506 0.93163,0.50259 1.23993,1.94072 1.05651,4.92818 -0.90297,14.70692 -5.47978,25.52628 -12.879,30.44527 -3.54849,2.35903 -8.23322,4.09866 -11.03746,4.09866 -0.7669,0 -1.39202,0.0298 -1.38912,0.0661 0.003,0.0364 2.53297,2.62666 5.6224,5.75617 8.81218,8.92654 11.16757,12.04833 11.49673,15.23751 0.12997,1.25929 0.0569,1.54168 -0.7074,2.73269 -0.4688,0.73055 -1.26393,1.68964 -1.76696,2.13131 -1.05941,0.93018 -3.61653,2.27131 -5.36687,2.81474 -2.97086,0.92239 -8.71091,1.37677 -12.19358,0.96523 z m 7.78729,-1.44291 c 2.27175,-0.29744 2.34296,-0.32569 1.34083,-0.53183 -0.58208,-0.11975 -1.56605,-0.33558 -2.1866,-0.47963 -1.569,-0.36424 -2.07206,-0.3301 -3.98853,0.27065 -0.92247,0.28917 -2.23216,0.54266 -2.91042,0.56331 l -1.23319,0.0375 1.05833,0.1895 c 1.72714,0.30924 5.35252,0.28656 7.91958,-0.0495 z m -13.34354,-1.1091 c -0.80036,-0.33389 -1.87193,-0.81977 -2.38125,-1.07973 -0.93947,-0.47951 -5.56937,-3.69099 -6.99924,-4.85495 -0.94831,-0.77196 -1.96732,-0.71993 -6.36222,0.32488 -1.60073,0.38053 -3.83315,0.76706 -4.96094,0.85895 -1.12778,0.0919 -2.05052,0.24324 -2.05052,0.33634 0,0.25234 3.08001,2.21949 4.8948,3.1262 2.52456,1.26133 3.93792,1.4661 11.37708,1.64828 3.78354,0.0927 7.11729,0.18617 7.40833,0.2078 0.29104,0.0216 -0.12568,-0.23387 -0.92604,-0.56777 z m 9.35216,-0.81297 c 1.2632,-0.3399 1.74852,-0.35917 2.64583,-0.10499 1.71514,0.48584 5.61189,0.41402 7.43151,-0.13695 3.68289,-1.11517 4.64775,-2.00989 4.64737,-4.30958 -5.4e-4,-3.33552 -4.58705,-9.20654 -12.56749,-16.08716 -9.9659,-8.59246 -19.60932,-14.73556 -27.25209,-17.36027 -3.35929,-1.15366 -3.01993,-1.32302 0.79375,-0.39613 5.61027,1.36353 11.51919,3.93602 16.27188,7.08407 l 2.51354,1.6649 3.83646,-0.0346 c 3.19141,-0.0288 4.26903,-0.14827 6.40922,-0.7106 4.47211,-1.17505 8.91124,-3.96173 11.13357,-6.98915 1.95687,-2.6658 3.91823,-6.32871 4.71321,-8.80209 0.9325,-2.90125 1.33495,-5.04907 2.07937,-11.09734 0.67872,-5.51438 0.69386,-7.05777 0.0724,-7.38147 -1.7854,-0.93001 -9.61676,-0.37535 -12.61557,0.89351 -0.28098,0.11889 1.035,-1.62229 2.92441,-3.86928 3.74466,-4.45335 5.10059,-6.32997 6.55632,-9.07397 1.27881,-2.41052 1.25055,-3.14205 -0.17245,-4.46409 -2.25168,-2.09194 -6.4664,-5.07314 -8.53282,-6.03554 -2.86395,-1.33383 -5.18332,-1.70554 -10.45104,-1.67491 -3.81788,0.0222 -4.69218,0.1122 -6.96838,0.71736 -3.03182,0.80604 -7.20314,2.72967 -10.29813,4.74904 -2.38557,1.5565 -7.47359,5.56505 -7.79786,6.14348 -0.36512,0.65129 -4.62767,5.19354 -4.75461,5.0666 -0.16264,-0.16264 4.66287,-6.66034 6.72392,-9.05395 3.16687,-3.67787 5.93193,-10.6295 6.68332,-16.80254 0.31274,-2.56931 -0.0247,-4.98396 -1.23232,-8.8192 -1.29614,-4.11628 -2.25835,-5.74651 -5.05866,-8.5707 -3.07325,-3.09947 -5.65122,-5.21642 -9.4932,-7.79554 -4.1122,-2.76052 -5.16816,-3.27374 -6.08595,-2.95792 -0.67616,0.23268 -0.86524,0.61869 -2.06907,4.22409 -0.72869,2.1824 -1.46446,4.20613 -1.63504,4.49718 -0.30133,0.51413 -0.31738,0.51037 -0.56498,-0.1323 -1.33174,-3.45661 -2.99681,-7.50671 -3.45696,-8.40869 -0.90704,-1.77794 -1.38484,-1.75028 -5.56361,0.32215 -8.29754,4.11509 -13.73214,7.48996 -15.93736,9.89703 -1.85871,2.02886 -3.97847,4.92386 -5.09504,6.95842 -2.1273,3.87628 -3.78955,10.64084 -3.46434,14.09819 0.44838,4.7667 1.90955,9.80479 4.1256,14.22494 1.60268,3.19673 1.93228,3.69869 6.27223,9.55211 1.81186,2.44372 3.23605,4.50135 3.16487,4.57253 -0.24966,0.24967 -8.04804,-8.24279 -9.37211,-10.20626 -3.03107,-4.49478 -4.88434,-8.81223 -5.65815,-13.18142 -0.33637,-1.89924 -0.37616,-1.96702 -2.06071,-3.51061 -3.12998,-2.86806 -6.31348,-3.93939 -11.68471,-3.93222 -4.46039,0.006 -6.1355,0.30425 -10.21728,1.81941 -7.46329,2.77038 -7.79345,2.97368 -7.75388,4.77465 0.0113,0.51332 0.22803,1.52863 0.48167,2.25623 0.38667,1.10923 0.65912,1.43129 1.68669,1.99383 1.75751,0.96215 1.76061,1.05986 0.0203,0.6401 -0.85124,-0.20531 -2.88438,-0.63094 -4.51809,-0.94583 -2.55409,-0.49229 -3.03261,-0.52092 -3.41443,-0.20427 -1.87517,1.55513 -1.48201,7.47441 1.01602,15.29698 2.1967,6.87895 3.96979,10.66653 7.38249,15.7701 3.19909,4.78416 6.80836,7.44594 12.71591,9.37776 2.42899,0.7943 2.59958,0.81564 3.3634,0.42065 1.7474,-0.90361 5.12253,-1.50287 9.33469,-1.65737 4.8094,-0.17641 8.42397,0.15589 13.8473,1.27305 2.03729,0.41966 4.50783,0.76351 5.4901,0.76411 0.98227,6e-4 1.78594,0.11067 1.78594,0.24461 0,0.35607 -3.17635,0.63745 -5.09323,0.45119 -13.1219,-1.27504 -13.45524,-1.29545 -16.15222,-0.98877 -4.59402,0.52239 -10.0265,2.68612 -14.34101,5.71194 -0.87313,0.61233 -2.26647,1.49479 -3.09632,1.96101 -2.3177,1.30213 -3.91514,3.63599 -3.91514,5.72003 0,1.73366 1.63497,4.08396 3.53381,5.0799 1.05279,0.55219 4.27074,0.60219 7.18182,0.11158 2.26616,-0.38192 6.0897,-0.26287 6.9874,0.21756 0.28626,0.1532 1.20532,1.59663 2.04234,3.20763 1.7954,3.45553 2.07938,3.66111 5.44198,3.93965 2.69108,0.22291 3.17222,0.489 7.77101,4.29767 1.43498,1.18843 3.74443,2.93097 5.13212,3.87231 4.97846,3.37714 7.94147,4.33579 11.60316,3.75407 2.62915,-0.41769 3.50779,-0.8495 4.91637,-2.41618 2.21938,-2.46848 2.51409,-5.7625 1.12205,-12.54123 -0.68028,-3.3127 -1.3978,-9.31099 -1.14414,-9.56466 0.0807,-0.0807 0.20988,0.25242 0.28708,0.74022 0.0772,0.48781 0.33358,2.1371 0.56971,3.66506 1.09931,7.1135 4.83637,14.84314 9.34833,19.33587 1.77292,1.76536 2.26785,2.09821 4.13092,2.77812 2.60261,0.94981 5.10976,0.99966 8.86354,0.17626 2.28672,-0.50159 4.17028,-0.72401 5.33456,-0.62995 0.24187,0.0195 1.78969,1.0029 3.43958,2.18523 3.49916,2.50754 5.24346,3.53127 7.4714,4.38497 1.39921,0.53614 1.94812,0.60231 4.12738,0.49754 1.38244,-0.0665 3.20967,-0.30818 4.06049,-0.53713 z m -33.29695,-21.75405 c -0.72761,-0.52709 -2.3469,-1.9881 -3.59843,-3.24668 -2.78226,-2.79794 -4.42104,-5.76381 -4.61607,-8.35416 l -0.11918,-1.58288 0.52096,1.93074 c 1.06024,3.92933 3.5737,7.39096 8.0773,11.12437 1.62807,1.34964 1.5041,1.4099 -0.26458,0.12861 z m -21.69783,-2.66654 c 0.57593,-1.42667 1.72421,-6.68784 1.73856,-7.96572 0.0115,-1.02244 0.0833,-1.32632 0.22792,-0.96396 0.33053,0.82832 -0.17977,4.15662 -1.05735,6.89624 -0.43983,1.37306 -0.86637,2.49646 -0.94786,2.49646 -0.0815,0 -0.0641,-0.20836 0.0387,-0.46302 z m 28.18012,-10.05404 c -1.38245,-0.50875 -3.7637,-1.32039 -5.29167,-1.80365 -3.14994,-0.99625 -2.80814,-1.23698 0.41047,-0.28909 2.21006,0.65087 7.79162,2.78028 7.79162,2.97257 0,0.17577 -0.23497,0.10475 -2.91042,-0.87983 z m -43.12708,-2.00661 c 0.78166,-0.75441 4.71758,-2.85957 6.51521,-3.48472 2.40336,-0.83581 5.60804,-1.34294 6.00129,-0.94969 0.20939,0.20939 0.0523,0.28933 -0.56849,0.28933 -1.37825,0 -4.80803,0.78863 -6.46757,1.48713 -0.84266,0.35466 -2.50979,1.18398 -3.70472,1.84292 -1.19493,0.65893 -1.994,1.0257 -1.77572,0.81503 z m 56.48854,-5.50173 c -4.18012,-0.52224 -9.7048,-2.38088 -11.50938,-3.87204 -1.07464,-0.88801 -0.49059,-0.89109 0.93224,-0.005 3.12146,1.94411 8.172,3.19082 15.20735,3.75389 l 4.36562,0.3494 -3.57187,0.003 c -1.96453,0.001 -4.40532,-0.1016 -5.42396,-0.22886 z m -18.78542,-2.03146 c -0.14552,-0.14206 -1.57427,-0.31452 -3.175,-0.38325 -1.86205,-0.0799 -3.72052,-0.34533 -5.15937,-0.73674 -1.81497,-0.49373 -2.73401,-0.59213 -4.7625,-0.50987 -6.96462,0.28242 -8.84712,-0.0388 -10.92019,-1.86363 -1.40988,-1.24103 -2.91895,-4.01574 -3.38027,-6.21526 -0.18313,-0.87314 -0.5698,-1.98627 -0.85926,-2.47365 -0.5992,-1.00888 -0.71495,-3.28509 -0.2146,-4.22 0.36668,-0.68515 1.1405,-0.75844 1.64097,-0.15542 0.47643,0.57407 0.46975,3.27585 -0.0103,4.17453 -0.46323,0.86715 -0.15126,2.294 1.04613,4.78464 1.02697,2.13616 2.13454,3.41298 3.55845,4.10229 1.41752,0.68622 4.34013,1.14122 5.86323,0.9128 l 1.10347,-0.16547 -0.99293,-0.89706 c -1.9308,-1.74434 -3.179,-5.7453 -3.17085,-10.1637 0.009,-4.78784 1.16282,-9.03462 4.08732,-15.04176 0.94583,-1.94281 1.72035,-3.72875 1.72117,-3.96875 0.006,-1.89314 1.69033,-4.35886 2.88228,-4.22044 0.52349,0.0608 0.70764,0.24878 0.76974,0.78576 0.15261,1.31982 -1.95303,4.65502 -2.74663,4.35048 -0.34217,-0.1313 -3.44436,6.85394 -4.32921,9.74812 -1.63888,5.36049 -1.7437,11.26695 -0.26316,14.82888 l 0.32993,0.79375 0.20014,-1.25323 c 0.48706,-3.04992 2.37506,-7.12588 4.34153,-9.3728 0.65733,-0.75108 1.19515,-1.59285 1.19515,-1.8706 0,-0.7281 1.79753,-2.72112 2.85133,-3.16143 1.07211,-0.44795 1.64659,-0.12991 1.64659,0.91159 0,1.00966 -2.32501,3.23709 -3.3789,3.23709 -1.0166,0 -1.99114,1.24105 -3.63589,4.63021 -1.91392,3.9438 -2.42598,6.94708 -1.55544,9.12277 0.23408,0.58503 0.45961,1.06369 0.50118,1.06369 0.0416,0 0.44941,-0.3492 0.9063,-0.776 0.45689,-0.4268 1.63034,-1.22001 2.60766,-1.76269 3.02305,-1.6786 4.61575,-2.8727 6.55416,-4.91385 2.83497,-2.98524 4.25268,-5.13992 4.26891,-6.48804 0.0146,-1.21686 0.77772,-2.92724 1.50397,-3.37108 0.70074,-0.42825 1.58577,0.74561 1.37494,1.82365 -0.193,0.98682 -0.93005,2.02617 -1.72122,2.42715 -0.32621,0.16533 -1.00789,0.98915 -1.51484,1.83072 -2.39626,3.97789 -5.61823,7.20759 -9.18349,9.20549 -1.25888,0.70545 -2.55557,1.50516 -2.88154,1.77714 l -0.59268,0.49449 1.22781,0.009 c 0.67529,0.005 2.4017,0.31985 3.83646,0.70002 4.17552,1.1064 4.63593,1.19425 6.38822,1.21882 1.44989,0.0203 1.7554,-0.0653 2.385,-0.6685 0.84817,-0.8126 2.84368,-1.57983 3.53684,-1.35983 0.72156,0.22902 0.5988,1.30555 -0.25827,2.26478 -0.59638,0.66746 -1.00172,0.85581 -2.05052,0.9528 -0.71896,0.0665 -1.42627,0.005 -1.57179,-0.13741 z m 1.5605,-0.61647 c 0.67651,-0.30824 1.14569,-1.0225 0.67166,-1.0225 -0.61704,0 -2.12414,0.80501 -1.971,1.0528 0.21434,0.3468 0.48557,0.34047 1.29934,-0.0303 z m -28.81511,-13.73749 c -0.0972,-0.57507 -0.27601,-0.98418 -0.39744,-0.90913 -0.41008,0.25344 -0.56511,1.67973 -0.24715,2.27383 0.28533,0.53315 0.3374,0.54543 0.56769,0.13394 0.13945,-0.24918 0.17405,-0.92357 0.0769,-1.49864 z m 27.8624,-2.43388 c 0.4358,-0.52509 0.65483,-1.70873 0.35096,-1.89653 -0.29555,-0.18266 -1.09104,1.14338 -1.09104,1.81873 0,0.49497 0.36226,0.53305 0.74008,0.0778 z m -9.68424,-2.76 c 0.81483,-0.78065 0.93514,-1.14112 0.38088,-1.14112 -0.52564,0 -1.75547,1.03293 -1.75547,1.47441 0,0.58417 0.55824,0.44882 1.37459,-0.33329 z m -2.7026,-14.16014 c 0.58075,-1.29713 0.44299,-1.77093 -0.31612,-1.08728 -0.6154,0.55423 -1.07426,1.60402 -0.85569,1.95767 0.30596,0.49505 0.6873,0.21181 1.17181,-0.87039 z m -26.32095,25.45196 c -5.07572,-1.80238 -10.11013,-4.63819 -14.41979,-8.12246 -2.1625,-1.74834 -7.01593,-6.64316 -6.80055,-6.85854 0.0735,-0.0735 1.18723,0.96113 2.47492,2.29921 1.28769,1.33809 3.18526,3.12406 4.21683,3.96884 4.10213,3.35934 10.53449,6.97797 15.71922,8.84311 1.38245,0.49732 2.33495,0.90401 2.11666,0.90377 -0.21828,-2.5e-4 -1.70656,-0.46552 -3.30729,-1.03393 z m 43.02306,-10.25013 c 4.45531,-7.36017 9.98511,-13.63294 13.68851,-15.52765 1.45551,-0.74466 1.24233,-0.27174 -0.35564,0.78893 -3.43436,2.27959 -7.93627,7.23329 -11.77969,12.9618 -1.79696,2.67833 -2.7787,3.8015 -1.55318,1.77692 z m -28.65944,-1.72665 c -3.53141,-6.1097 -6.08971,-12.97045 -7.07632,-18.97699 -0.15537,-0.94589 -0.34592,-2.10675 -0.42344,-2.57969 -0.0775,-0.47294 -0.0381,-0.8599 0.0877,-0.8599 0.12574,0 0.42644,1.11641 0.66821,2.4809 0.87139,4.91795 3.74185,13.1043 6.58489,18.77967 0.7184,1.4341 1.26223,2.6514 1.20851,2.70512 -0.0537,0.0537 -0.52601,-0.64338 -1.04952,-1.54911 z m 20.66334,-4.16033 c 2.14591,-4.6289 3.52713,-8.9789 4.68363,-14.75052 0.0656,-0.32742 0.21891,-0.59531 0.34067,-0.59531 0.27597,0 -0.29609,3.35688 -1.02457,6.0122 -0.76067,2.77267 -2.26021,6.71269 -3.45163,9.06905 -1.5882,3.14113 -1.96624,3.32362 -0.5481,0.26458 z m -29.60384,59.19786 c -1.09187,-1.05357 -2.92492,-2.9676 -4.07344,-4.2534 -1.14852,-1.2858 -2.95493,-2.99014 -4.01424,-3.78746 -1.69929,-1.27898 -2.13861,-1.47969 -3.73178,-1.7049 -0.99316,-0.1404 -2.43545,-0.45354 -3.20509,-0.69587 -1.55069,-0.48826 -1.69899,-0.66749 -3.77329,-4.5604 l -1.20389,-2.25938 -3.82319,0.0358 c -2.99242,0.028 -4.53505,0.18484 -7.09911,0.72173 -1.80175,0.37728 -3.37933,0.62204 -3.50573,0.54392 -0.63207,-0.39064 -0.073,0.7132 1.27199,2.51147 2.9672,3.96719 6.77554,7.46387 9.77516,8.97521 0.59978,0.30219 2.7429,1.01892 4.7625,1.59273 2.0196,0.57381 5.16027,1.57725 6.97928,2.22986 4.5872,1.64575 8.48189,2.45708 12.17084,2.53538 l 1.45521,0.0309 z"
       id="path29"
       sodipodi:nodetypes="csssscssssssssssssssssscssssssssssssssssssssssssscsssscsssssccssssscsssssssssssssssssssscsssssssssssssssssssssssssssssssssssssssssssssssssssssssssssssssssssssssssssssssssscsssssssssssssssssssssscscscccccsssssssssssscscscssssscsssssssssssssssssssccssssssccssssssssssssssssssssssssssssssssssssssssssssssssssssssscsssssssscs"
       inkscape:label="Logo Marca Contorno" /><path
       style="fill:#300806"
       d="m -286.22846,259.67761 c -5.29049,-0.52501 -6.85023,-4.54401 -3.93608,-10.14219 1.85057,-3.55504 5.7329,-6.58433 12.87247,-10.0441 6.27671,-3.04163 14.02282,-5.72745 27.51667,-9.54091 8.19269,-2.31531 12.7174,-3.94055 18.02366,-6.47396 l 3.74187,-1.78651 0.16445,1.19983 c 0.0905,0.6599 0.1343,1.22634 0.0975,1.25874 -0.0369,0.0324 -1.52279,0.7864 -3.30207,1.67555 -3.74347,1.87068 -8.15227,3.3932 -15.41807,5.3244 -7.57385,2.01308 -11.67366,3.2449 -17.59479,5.28649 -6.54086,2.25526 -9.00774,3.24691 -12.86011,5.16959 -7.63107,3.80859 -10.8201,7.0225 -10.8201,10.90453 0,1.35831 0.11077,1.74759 0.69474,2.4416 1.70823,2.03011 5.28849,2.65274 9.36459,1.62856 2.76889,-0.69572 8.58327,-3.53123 12.51974,-6.10552 5.47284,-3.57901 13.86821,-10.71121 19.11841,-16.24185 l 2.93602,-3.09285 2.42052,-0.75888 2.42053,-0.75887 -1.09029,1.30223 c -1.20849,1.4434 -7.72413,7.67028 -10.81343,10.33419 -6.02073,5.19169 -14.19347,10.8958 -20.50812,14.3135 -6.14271,3.32465 -10.86309,4.57136 -15.54806,4.10643 z m -85.67245,-0.78743 c -0.44512,-0.8317 -0.16864,-3.28641 0.46631,-4.14022 0.59699,-0.80276 2.1951,-1.0868 3.51868,-0.6254 0.68678,0.23941 0.94592,0.0778 3.87576,-2.41795 6.31446,-5.37879 15.74095,-15.49036 22.07941,-23.68406 0.63745,-0.82404 0.76078,-0.87058 2.1034,-0.79375 l 1.42624,0.0816 -3.41062,4.23333 c -5.45796,6.77454 -8.63542,10.43865 -13.56858,15.64674 -6.86198,7.24438 -11.1098,10.81879 -14.11863,11.88036 -1.4917,0.5263 -2.01494,0.48645 -2.37197,-0.18067 z m 105.05988,-20.70099 c 0,-0.0558 0.23829,-0.16375 0.52954,-0.23991 0.29124,-0.0762 0.46281,-0.0305 0.38126,0.10144 -0.14242,0.23042 -0.9108,0.34725 -0.9108,0.13847 z m -10.10044,-2.5831 c -3.38939,-1.36173 -12.87948,-6.13021 -20.19435,-10.14704 -5.81099,-3.19101 -12.11166,-7.13268 -18.91405,-11.83254 -10.08559,-6.96826 -17.74533,-12.00539 -19.4783,-12.80915 -5.36286,-2.48732 -11.8237,-3.01141 -16.30941,-1.32299 -4.77004,1.79544 -7.71803,5.05729 -8.06902,8.9281 -0.18694,2.06161 0.2608,3.51637 1.66596,5.41289 3.11944,4.21025 8.38034,7.10024 14.91402,8.19274 2.22443,0.37196 3.6533,0.43003 7.40779,0.30109 7.05407,-0.24225 11.12311,-1.09851 18.57932,-3.90969 2.27588,-0.85807 4.2132,-1.56013 4.30515,-1.56013 0.41661,0 2.27114,1.42902 2.08475,1.60641 -0.76084,0.72412 -10.61293,4.30686 -16.61329,6.04146 -4.25338,1.22959 -8.95509,1.89665 -13.36146,1.89569 -3.87394,-8.5e-4 -9.97795,-1.80678 -13.14596,-3.88935 -2.00538,-1.3183 -5.28128,-4.65124 -6.3572,-6.4679 -3.11152,-5.25373 -1.60807,-11.94255 3.68482,-16.39368 3.66916,-3.08564 6.52638,-4.02511 12.24647,-4.02668 5.97483,-0.002 10.30418,1.17805 17.45545,4.75639 3.57483,1.78877 4.95564,2.65576 16.76201,10.52454 6.22646,4.14985 14.84396,9.58092 25.66049,16.17222 1.70108,1.03659 5.87231,3.27763 9.26938,4.98009 3.39708,1.70246 6.13503,3.13685 6.08433,3.18755 -0.0507,0.0507 -1.065,0.44721 -2.25403,0.88115 l -2.16185,0.78898 z m 139.92891,-7.12553 c -1.47597,-0.35494 -1.96262,-0.67832 -2.83677,-1.88505 -0.65112,-0.89885 -0.78445,-1.33767 -0.77964,-2.56594 0.008,-2.14465 0.73225,-3.47045 3.3719,-6.17606 l 2.31083,-2.36858 -2.38125,0.2164 c -3.18712,0.28964 -4.1661,0.21225 -5.42238,-0.42865 -0.8475,-0.43236 -1.05941,-0.68546 -1.05742,-1.26295 0.006,-1.76168 3.50629,-6.02123 5.90014,-7.18008 2.1577,-1.04452 3.35779,-0.55905 3.35779,1.35834 0,0.91816 -0.1606,1.23318 -1.06947,2.09777 -0.81761,0.77776 -1.28495,1.01736 -1.98438,1.01736 -1.00722,0 -1.15822,-0.35093 -0.47555,-1.10526 0.52866,-0.58417 0.27572,-0.9659 -0.31511,-0.47555 -1.01829,0.8451 -1.07264,1.93863 -0.10888,2.19066 0.27936,0.0731 1.54502,-0.0938 2.81257,-0.3708 3.43301,-0.75021 4.20798,-0.69326 4.84789,0.35627 0.98362,1.61326 0.67021,2.30346 -2.90964,6.40761 -3.31803,3.80397 -3.72268,4.77054 -2.56205,6.11986 1.65905,1.92875 7.22543,0.70246 13.25829,-2.92085 1.53661,-0.92287 2.79383,-1.64469 2.79383,-1.60403 0,0.0407 -0.37288,0.87075 -0.82862,1.84465 -0.93265,1.99302 -1.53686,2.47487 -5.65367,4.50862 -3.62504,1.79081 -8.07094,2.75471 -10.26841,2.22626 z m -138.98392,-0.74876 c -2.85678,-1.29738 -3.68802,-4.35725 -2.32391,-8.55452 0.57036,-1.75499 2.66552,-4.84714 4.36095,-6.43615 2.44293,-2.28958 5.45586,-3.7152 7.13992,-3.37839 1.93094,0.38619 2.87018,2.3025 1.97602,4.03162 -0.5748,1.11155 -3.01238,3.227 -6.45958,5.60594 -3.34734,2.31004 -3.57596,2.31421 -2.9674,0.0542 0.22941,-0.85198 0.60412,-1.24976 2.26489,-2.40433 1.92433,-1.3378 3.68836,-3.29296 3.49503,-3.8737 -0.39372,-1.18271 -3.32829,0.69943 -5.06305,3.24727 -1.73908,2.55421 -2.13763,5.37472 -1.00533,7.11485 0.95375,1.46575 3.39699,2.31845 5.40755,1.88726 2.60454,-0.55858 12.41155,-5.95774 15.00659,-8.26175 0.61274,-0.54403 0.63011,-0.54547 0.44423,-0.037 -0.1064,0.29104 -0.26224,1.10426 -0.34632,1.80714 l -0.15287,1.27798 -3.58452,2.36086 c -4.62393,3.04545 -7.73962,4.5767 -10.9889,5.40064 -3.16358,0.80222 -5.66412,0.8571 -7.2033,0.1581 z m 52.09073,8.8e-4 c -1.10929,-0.28657 -2.07732,-0.93122 -2.60291,-1.73338 -0.59113,-0.90216 -0.83102,-5.2811 -0.37797,-6.89924 0.71695,-2.56069 4.34171,-6.90916 7.11312,-8.53331 2.73861,-1.60494 5.46334,-1.62756 6.11646,-0.0508 0.5694,1.37465 -0.2399,2.9304 -2.88804,5.55181 -2.06558,2.04474 -5.9546,5.00729 -6.21937,4.73776 -0.0593,-0.0603 0.0175,-0.74089 0.17058,-1.51234 0.25156,-1.26768 0.42215,-1.5133 1.77293,-2.5527 2.07909,-1.59982 3.45701,-3.18736 3.45701,-3.98292 0,-0.79747 -0.24085,-0.81854 -1.57518,-0.13782 -2.85436,1.45619 -5.43962,7.11211 -4.5219,9.89282 0.36874,1.1173 1.88757,2.13396 3.58354,2.39869 3.241,0.50591 10.85831,-3.39795 19.59213,-10.04094 3.72329,-2.83197 4.1266,-3.03968 5.89124,-3.03413 3.40866,0.0107 3.51848,1.99104 0.34266,6.1788 -0.7579,0.99939 -1.31751,1.87756 -1.24358,1.95149 0.0739,0.0739 1.93201,-1.07181 4.12907,-2.5461 7.87023,-5.28116 14.01868,-7.37697 14.01868,-4.77851 0,0.24154 -0.78444,1.37859 -1.7432,2.52677 -2.99006,3.58081 -3.62052,5.47894 -2.41607,7.274 1.30033,1.93795 3.72394,1.94489 7.665,0.022 l 2.05052,-1.0005 v 1.26571 1.2657 l -1.52135,0.7631 c -2.80167,1.40531 -5.60807,2.24093 -7.60677,2.26496 -1.5656,0.0188 -2.04255,-0.0897 -3.08344,-0.7016 -2.17888,-1.28087 -2.8697,-3.87863 -1.95025,-7.33362 0.2112,-0.7936 0.33991,-1.48699 0.28603,-1.54087 -0.23473,-0.23473 -7.31055,3.94 -12.51917,7.3863 -1.92968,1.27677 -3.92528,2.39959 -4.43467,2.49516 -1.01059,0.18958 -1.71501,-0.185 -1.71283,-0.91082 0.002,-0.76133 1.74667,-3.86213 4.09808,-7.28469 1.2592,-1.83282 2.1801,-3.33239 2.04646,-3.33239 -0.13364,0 -0.4626,0.24266 -0.731,0.53925 -0.81079,0.89591 -5.3986,4.32409 -8.47481,6.33269 -3.52013,2.29846 -6.5132,3.80685 -8.97857,4.52485 -2.02531,0.58984 -6.35918,0.88962 -7.73243,0.53485 z m 56.18999,-0.14434 c -2.28793,-0.65805 -3.07706,-1.92535 -3.08004,-4.94641 -0.006,-5.67057 6.31564,-13.23384 11.11972,-13.30457 1.03461,-0.0152 1.44898,0.13039 2.28141,0.80177 2.46992,1.99203 0.99045,4.30121 -5.53463,8.63847 -1.69667,1.12779 -3.14902,2.05052 -3.22745,2.05052 -0.19092,0 -0.18074,-1.06612 0.0198,-2.06856 0.12684,-0.6342 0.70556,-1.22548 2.64546,-2.70284 3.44064,-2.62028 4.20562,-3.69526 2.62963,-3.69526 -0.78741,0 -3.48603,1.98104 -4.48255,3.29062 -1.10425,1.45114 -1.74865,3.35215 -1.74865,5.15858 0,1.31401 0.11446,1.7004 0.71525,2.41439 0.39339,0.46752 1.10394,1.01243 1.579,1.21093 1.2561,0.52483 3.97971,0.44958 5.74803,-0.15881 3.57075,-1.22852 8.72906,-4.18617 12.3021,-7.05375 l 2.485,-1.99437 0.91035,0.48444 c 1.19865,0.63785 1.31227,0.86918 0.67812,1.38063 -6.58924,5.31435 -10.78739,7.86341 -15.96862,9.69595 -2.27005,0.80289 -3.2074,0.99341 -5.27423,1.07201 -1.63401,0.0621 -2.96287,-0.0336 -3.79765,-0.27374 z m 65.49024,-0.009 c -2.10396,-0.65655 -2.95509,-1.9599 -2.95509,-4.52516 v -1.49558 l -1.12448,0.91675 c -1.60848,1.31134 -2.94508,2.09023 -5.35781,3.1222 -1.9321,0.8264 -2.34739,0.90597 -4.7625,0.91247 -3.14203,0.008 -4.08754,-0.34373 -4.46534,-1.66321 -0.33726,-1.17787 0.29935,-3.16174 1.71978,-5.35942 1.35152,-2.09108 2.86251,-3.51689 5.90445,-5.57163 4.76597,-3.21926 7.92875,-4.35155 11.23546,-4.02235 1.88777,0.18794 2.671272,0.72182 2.671272,1.8202 0,1.118 -0.693482,2.11024 -1.834452,2.62474 -1.02108,0.46045 -1.10347,0.46195 -1.58194,0.0289 -0.27762,-0.25124 -0.57495,-0.73645 -0.66073,-1.07823 -0.18331,-0.73035 -1.67758,-1.33026 -2.59945,-1.04362 -0.8516,0.2648 -4.04301,2.34667 -5.75884,3.75672 -2.9675,2.43864 -4.32237,4.41545 -4.18205,6.1018 0.0766,0.92052 0.13609,0.97813 1.09141,1.0568 1.28922,0.10616 3.96089,-0.75416 6.66251,-2.14545 1.67741,-0.86383 2.63829,-1.6238 4.63021,-3.66212 2.61159,-2.67241 3.49465,-3.17555 4.649722,-2.64926 0.80691,0.36765 0.83062,1.18457 0.0702,2.4205 -1.686652,2.7415 -2.555032,5.25161 -2.201832,6.36447 0.22413,0.70617 1.473322,1.30983 2.694252,1.30198 3.66024,-0.0236 10.36176,-3.65114 17.80207,-9.6364 1.82137,-1.46518 3.63482,-2.87149 4.02988,-3.12513 0.83296,-0.53479 1.79525,-0.60749 1.79525,-0.13563 0,0.59069 -5.36837,5.61523 -8.46667,7.92439 -8.88083,6.61888 -14.85196,9.05732 -19.005322,7.76123 z m -135.90503,-3.67126 c 2.75362,-4.53559 3.59755,-7.25891 2.99735,-9.67236 -0.50136,-2.01598 -1.23826,-2.50537 -3.95851,-2.6289 -4.95545,-0.22504 -9.74011,2.83866 -9.7533,6.24521 -0.0116,3.00651 2.8,3.15911 8.46728,0.45955 1.67621,-0.79846 3.20299,-1.45174 3.39283,-1.45174 0.8057,0 0.0451,0.97952 -1.67829,2.16119 -6.7846,4.65211 -12.31001,5.35736 -14.19418,1.81169 -1.92897,-3.62997 1.94563,-8.34907 8.71935,-10.61982 4.34453,-1.45641 8.92335,-1.16242 11.11513,0.71366 2.48622,2.12811 2.4905,6.48227 0.0111,11.25389 -0.82081,1.57962 -0.7112,1.50822 -4.64973,3.02886 l -1.64447,0.63491 z m -98.5266,-2.80556 c 1.94505,-2.78534 9.15478,-12.70779 9.55916,-13.15586 l 0.52236,-0.5788 1.02772,0.68011 c 0.56525,0.37406 1.02304,0.81312 1.01732,0.97568 -0.0159,0.45227 -9.23561,12.17675 -9.73647,12.38166 -0.24177,0.0989 -0.96013,0.18821 -1.59634,0.19844 -1.09793,0.0177 -1.13829,-0.008 -0.79375,-0.50123 z m 32.42784,-7.27206 -1.00809,-0.59826 4.42364,-2.20627 c 10.55493,-5.26423 17.4454,-9.8757 25.02557,-16.74845 4.88681,-4.43076 7.56696,-8.37748 8.70156,-12.8137 1.43135,-5.59653 -0.37643,-8.37354 -6.48714,-9.96518 -5.17217,-1.34718 -11.13721,-0.37308 -17.74121,2.89716 -1.60073,0.79267 -3.82088,2.12863 -4.93366,2.9688 -2.94286,2.2219 -7.57869,6.41447 -9.681,8.75533 -3.52589,3.92597 -8.69713,10.01527 -11.53957,13.58822 l -2.8709,3.60872 -0.90026,-0.53117 c -0.49514,-0.29214 -0.9589,-0.62605 -1.03058,-0.74202 -0.17357,-0.28084 5.58839,-7.68784 9.23603,-11.87291 3.47394,-3.98578 6.10381,-6.60401 10.05599,-10.01145 7.76478,-6.69453 13.10515,-10.21106 18.00487,-11.85584 5.40721,-1.81514 13.38432,-1.87893 17.44229,-0.13948 4.16516,1.7854 6.35159,6.93149 5.06395,11.9188 -0.51647,2.00042 -2.35512,6.01548 -3.5959,7.85236 -4.40202,6.5169 -12.95111,13.30937 -26.62288,21.15256 -5.12751,2.94154 -9.82547,5.40213 -10.24515,5.36597 -0.15922,-0.0137 -0.74312,-0.29415 -1.29756,-0.62319 z"
       id="path28"
       inkscape:label="Logo Texto" /></g></svg>
